<?xml version="1.0" encoding="UTF-8" standalone="no"?>
<svg
   xmlns:dc="http://purl.org/dc/elements/1.1/"
   xmlns:cc="http://creativecommons.org/ns#"
   xmlns:rdf="http://www.w3.org/1999/02/22-rdf-syntax-ns#"
   xmlns:svg="http://www.w3.org/2000/svg"
   xmlns="http://www.w3.org/2000/svg"
   id="svg1098"
   viewBox="0 0 9937 7085"
   style="shape-rendering:geometricPrecision; text-rendering:geometricPrecision; image-rendering:optimizeQuality; fill-rule:evenodd; clip-rule:evenodd"
   version="1.1"
   height="70.8454mm"
   width="99.3717mm"
   xml:space="preserve"><metadata
   id="metadata1102"><rdf:RDF><cc:Work
       rdf:about=""><dc:format>image/svg+xml</dc:format><dc:type
         rdf:resource="http://purl.org/dc/dcmitype/StillImage" /><dc:title></dc:title></cc:Work></rdf:RDF></metadata>
 <defs
   id="defs971">
  <style
   id="style969"
   type="text/css">
   <![CDATA[
    .fil5 {fill:#FEFEFE}
    .fil0 {fill:#F8AE11}
    .fil2 {fill:#E73D35}
    .fil4 {fill:#B8C827}
    .fil3 {fill:#5C9232}
    .fil1 {fill:#FEFEFE;fill-rule:nonzero}
    .fil6 {fill:#2A4824;fill-rule:nonzero}
   ]]>
  </style>
 
  
  
 
   
   
   
   
   
  </defs>
 
<g
   id="layer2" /><flowRoot
   style="fill:black;fill-opacity:1;stroke:none;font-family:sans-serif;font-style:normal;font-weight:normal;font-size:40px;line-height:1.25;letter-spacing:0px;word-spacing:0px"
   id="flowRoot1060"
   xml:space="preserve"><flowRegion
     id="flowRegion1062"><rect
       y="457.76215"
       x="-20"
       height="143"
       width="428"
       id="rect1064" /></flowRegion><flowPara
     id="flowPara1066" /></flowRoot><g
   id="layer1" /><g
   id="flowRoot1025"
   style="font-style:normal;font-weight:normal;font-size:40px;line-height:1.25;font-family:sans-serif;letter-spacing:0px;word-spacing:0px;clip-rule:evenodd;fill:#5c9232;fill-opacity:1;fill-rule:evenodd;stroke:none;image-rendering:optimizeQuality;shape-rendering:geometricPrecision;text-rendering:geometricPrecision"
   transform="matrix(34.212799,0,0,34.212799,2273.5122,-5270.6108)"
   aria-label="FUNDACJA"><g
     transform="matrix(1.6653249,0,0,1.6653249,-38.686438,-188.56682)"
     id="g1091"><path
       transform="matrix(0.02922883,0,0,0.02922883,-66.452096,154.05377)"
       style="clip-rule:evenodd;fill:#2a4824;fill-opacity:1;fill-rule:evenodd;stroke:#ffffff;stroke-width:31.06975746;stroke-miterlimit:4;stroke-dasharray:none;stroke-opacity:1;image-rendering:optimizeQuality;shape-rendering:geometricPrecision;text-rendering:geometricPrecision"
       d="m 2236.949,4362.6104 c 114.3079,-155.0038 260.0042,-312.5361 368.8663,-447.8684 8.6606,-10.8287 25.2641,-26.9628 26.6741,-31.8314 3.8093,-37.738 -6.4336,-60.8257 8.9064,-102.2753 37.8152,-98.0534 195.2092,-355.5928 331.1144,-407.1234 27.6627,-11.3809 44.7725,-14.8324 40.098,-27.1269 -62.3685,-219.8956 241.732,-370.9609 387.8219,-157.748 5.8931,6.8385 9.7325,9.6715 17.4383,6.0141 198.4606,-79.5898 268.8057,177.1159 156.1942,229.926 -113.3711,49.381 -235.1331,96.6289 -337.6629,147.7218 -22.4564,11.1706 -29.7816,23.0369 -34.7434,40.8657 -34.533,93.0716 -87.4322,150.1005 -133.0775,227.3724 l 227.4718,72.3823 c 66.1362,19.481 113.2975,91.3094 97.9964,156.8254 -55.3337,152.2423 -77.7363,259.3919 -146.8996,396.6887 -24.914,41.1992 -70.7868,56.0244 -102.1247,58.8495 -58.2929,2.1481 -106.6374,-34.1661 -127.527,-74.6057 -20.8896,-40.4394 -0.7828,-90.7403 4.9693,-111.1066 5.7522,-20.3663 77.8278,-192.3496 71.4269,-204.2183 -6.401,-11.8687 -164.1929,-33.8003 -200.88,-53.5635 -36.6871,-19.7633 -40.2754,-34.837 -48.1454,-25.2134 -125.9066,130.5322 -273.3263,354.4984 -440.699,501.2225 -66.012,52.5514 -257.2616,-63.6091 -167.2185,-195.1875 z m 159.4297,122.5993 c 111.1813,-122.5325 282.6668,-329.2531 390.3445,-474.2236 16.6168,-22.1933 23.7576,-32.6326 48.2749,-38.4866 41.4609,-5.5014 75.2451,-32.835 102.4688,-65.4385 75.312,-92.4195 123.9598,-180.2366 169.9413,-257.971 14.6409,-24.8469 -2.2076,-20.5783 -15.8089,-16.6682 -49.5175,13.8966 -103.785,-10.6203 -132.2959,-39.0846 -23.6732,-23.8275 -41.6878,-64.3726 -41.6878,-93.8241 0,-5.5628 -3.8791,-1.7884 -10.9463,6.3536 -67.2396,100.1811 -245.6638,264.2749 -199.0754,409.038 l -28.9854,30.4245 c -127.5553,143.5355 -252.8553,289.7064 -381.511,441.1327 -58.7997,70.4458 41.5024,154.9472 99.2812,98.7478 z m 808.1961,-68.8499 c 30.2393,-79.4554 113.159,-331.5095 113.159,-331.5095 25.0668,-72.9504 -21.6433,-99.5005 -62.6869,-110.8678 l -214.9537,-63.0686 c -12.2757,-2.5969 -14.4955,-2.1469 -21.1117,5.5836 -30.2678,44.2834 -62.2494,72.4442 -97.3684,103.9739 -9.9222,9.0897 109.9054,31.8568 151.8059,44.8153 41.9007,12.9585 95.2485,23.8867 83.9537,81.2706 -11.2949,57.3837 -69.0781,186.9912 -84.777,247.837 -15.6988,60.8458 101.7398,101.4208 131.9791,21.9655 z m 322.1521,-1047.3664 c 73.9396,-37.5973 3.2335,-142.1427 -40.7843,-121.8231 -41.5252,16.9382 -324.3711,130.3582 -450.5309,189.3698 -29.5368,14.05 -44.4163,30.1484 -44.4163,59.0916 1.9947,42.7423 54.9426,76.7519 91.3217,64.4117 103.8095,-55.1928 379.971,-155.8217 444.4098,-191.05 z m -192.526,-143.4278 c 11.9135,-5.4674 4.6241,-7.9637 1.9732,-13.607 -103.1308,-134.2473 -301.8558,-37.3238 -252.9151,120.686 80.9905,-35.0813 152.0185,-62.8989 250.9419,-107.079 z"
       id="path1025" /><g
       style="clip-rule:evenodd;fill-rule:evenodd;image-rendering:optimizeQuality;shape-rendering:geometricPrecision;text-rendering:geometricPrecision"
       id="g978"
       transform="matrix(0.00672132,0,0,0.00672132,8.8105272,254.85843)">
    <rect
   class="fil0"
   x="4929"
   y="2492"
   width="2342"
   height="2333"
   rx="104"
   ry="221"
   id="rect974"
   style="fill:#f8ae11" />
    <path
   class="fil1"
   d="m 6503,3780 c 0,23 14,290 -308,290 -215,0 -307,-155 -307,-397 v -375 c 10,-249 159,-112 159,-259 0,-79 -67,-140 -399,-140 -420,0 -397,114 -397,142 0,94 138,94 130,222 v 471 c 0,24 -90,643 713,643 704,0 702,-489 702,-580 v -550 c 0,-185 153,-116 153,-230 0,-118 -224,-118 -301,-118 -84,0 -320,-4 -320,122 0,118 175,35 175,252 z"
   id="path976"
   style="fill:#fefefe;fill-rule:nonzero" />
   </g><g
       style="clip-rule:evenodd;fill-rule:evenodd;image-rendering:optimizeQuality;shape-rendering:geometricPrecision;text-rendering:geometricPrecision"
       id="g984"
       transform="matrix(0.00672132,0,0,0.00672132,25.573386,238.11537)">
    <rect
   class="fil2"
   x="2435"
   y="2492"
   width="2342"
   height="2333"
   rx="104"
   ry="221"
   id="rect980"
   style="fill:#e73d35" />
    <path
   class="fil1"
   d="m 3855,4240 c 81,100 83,106 163,106 h 346 c 79,0 183,-10 183,-112 0,-124 -124,-116 -185,-185 l -426,-487 c -32,-39 -81,-88 -81,-143 0,-85 173,-210 214,-250 71,-72 283,28 283,-139 0,-144 -236,-134 -334,-134 -98,0 -367,-8 -367,143 0,44 33,64 33,107 0,47 -161,257 -216,257 -37,0 -39,-59 -39,-86 0,-240 112,-175 112,-282 0,-141 -211,-139 -307,-139 -446,0 -428,114 -428,147 0,124 108,48 135,223 22,125 20,271 20,397 0,117 -2,247 -20,361 -25,169 -127,114 -127,220 0,70 41,125 363,125 358,0 405,-61 405,-127 0,-100 -128,-108 -128,-206 v -42 c 0,-59 8,-112 61,-112 47,0 167,148 201,189 z"
   id="path982"
   style="fill:#fefefe;fill-rule:nonzero" />
   </g><g
       style="clip-rule:evenodd;fill-rule:evenodd;image-rendering:optimizeQuality;shape-rendering:geometricPrecision;text-rendering:geometricPrecision"
       id="g990"
       transform="matrix(0.00672132,0,0,0.00672132,25.551808,221.38675)">
    <rect
   class="fil3"
   x="2437"
   width="2342"
   height="2333"
   rx="104"
   ry="221"
   id="rect986"
   y="0"
   style="fill:#5c9232" />
    <path
   class="fil1"
   d="m 4079,744 c 4,-171 163,-122 163,-228 0,-57 -45,-151 -429,-151 -398,0 -414,130 -414,169 0,137 194,16 183,242 -16,367 98,782 -142,807 -49,4 -90,-25 -90,-76 0,-26 15,-61 15,-95 0,-129 -119,-202 -237,-202 -136,0 -228,112 -228,245 0,291 353,388 589,388 114,0 562,-40 574,-472 z"
   id="path988"
   style="fill:#fefefe;fill-rule:nonzero" />
   </g><g
       style="clip-rule:evenodd;fill-rule:evenodd;image-rendering:optimizeQuality;shape-rendering:geometricPrecision;text-rendering:geometricPrecision"
       id="g1000"
       transform="matrix(0.00672132,0,0,0.00672132,5.9272061,238.12468)">
    <rect
   class="fil4"
   x="4929"
   width="2342"
   height="2333"
   rx="104"
   ry="221"
   id="rect992"
   y="0"
   style="fill:#b8c827" />
    <path
   class="fil1"
   d="m 5506,1362 c -31,65 -74,163 -118,218 -60,73 -169,45 -169,141 0,65 26,120 317,120 82,0 302,-2 302,-124 0,-106 -131,-53 -131,-133 0,-100 63,-104 169,-104 328,0 379,8 379,100 0,71 -124,35 -124,132 0,127 175,129 466,129 102,0 391,6 391,-143 0,-116 -110,-22 -177,-177 -73,-167 -381,-790 -415,-849 -80,-134 -192,-316 -369,-316 -181,0 -246,106 -246,247 0,161 -84,340 -147,480 z m 403,-132 c -23,0 -73,6 -73,-29 0,-24 34,-103 42,-126 8,-22 43,-144 92,-144 45,0 79,75 98,107 16,29 75,135 75,165 0,31 -61,27 -81,27 z"
   id="path994"
   style="fill:#fefefe;fill-rule:nonzero" />
    <path
   class="fil4"
   d="m 6074,1814 c 60,-14 101,-30 162,-55 209,-99 166,-254 158,-399 -8,-145 -176,-605 -363,-576 -294,48 -407,663 -373,784 44,159 205,201 341,256 54,24 75,-10 75,-10 z"
   id="path996"
   style="fill:#b8c827" />
    <path
   class="fil5"
   d="m 6018,1269 -11,6 c -57,-51 -110,-59 -171,-154 -10,44 117,147 135,160 75,57 45,80 36,254 -102,-36 -204,-129 -277,-209 -25,75 261,217 272,250 11,33 2,76 1,86 -55,-13 -229,-139 -303,-213 44,114 297,204 304,282 2,18 0,79 -5,93 45,21 71,2 78,-11 -8,-28 -2,-13 -15,-41 -14,-36 205,-173 207,-205 -11,4 -183,136 -217,155 -1,-77 -28,-97 91,-144 18,-7 104,-61 109,-67 l -63,23 c -34,-11 149,-101 174,-192 -48,54 -118,118 -176,156 -54,64 -100,68 -137,98 -18,-15 -15,-129 -5,-152 29,-34 219,-132 206,-186 -113,107 -60,72 -209,151 0,-65 0,-130 -1,-196 3,-37 15,-54 34,-85 15,-24 42,-53 51,-76 -24,18 -46,52 -71,73 l -14,6 c -5,-50 -5,-140 -7,-196 -15,60 -8,260 -16,334 z"
   id="path998"
   style="fill:#fefefe" />
   </g><g
       style="clip-rule:evenodd;fill-rule:evenodd;image-rendering:optimizeQuality;shape-rendering:geometricPrecision;text-rendering:geometricPrecision"
       id="g1183"
       transform="matrix(0.02922883,0,0,0.02922883,-66.645445,141.67943)"><g
         aria-label="edukacja
"
         transform="matrix(16.441081,0,0,16.441081,-2319.1431,2733.6511)"
         style="font-style:normal;font-weight:normal;font-size:40px;line-height:1.25;font-family:sans-serif;letter-spacing:0px;word-spacing:0px;fill:#000000;fill-opacity:1;stroke:none"
         id="flowRoot1048"><path
           d="m 426.61473,23.204484 c 2.40335,0 3.26169,1.854013 3.39903,3.776693 h -7.69072 c 0.24033,-2.163015 1.03,-3.776693 4.29169,-3.776693 z m 7.21005,7.210051 c 0.20601,0 0.37767,-0.171668 0.37767,-0.343336 v -1.373343 c 0,-6.180044 -2.71235,-8.892396 -7.58772,-8.892396 -7.00405,0 -8.58339,3.982695 -8.58339,8.892396 0,4.909701 1.54501,8.92673 8.92673,8.92673 3.09002,0 5.49337,-0.686672 5.49337,-0.686672 0.206,-0.03433 0.309,-0.171668 0.34334,-0.343336 0,0 0.34333,-2.643685 0.34333,-2.746686 0,-0.206001 -0.13733,-0.343335 -0.34333,-0.343335 -0.17167,0 -3.09003,0.686671 -5.83671,0.686671 -3.43336,0 -4.36037,-1.579344 -4.63503,-3.776693 z"
           style="font-style:normal;font-variant:normal;font-weight:normal;font-stretch:normal;font-size:34.3335762px;line-height:0px;font-family:Mentone;-inkscape-font-specification:Mentone;fill:#2a4824;fill-opacity:1"
           id="path947" /><path
           d="m 449.91489,36.937914 c 0.0687,0.206002 0.206,0.343336 0.34334,0.343336 h 3.43336 c 0.206,0 0.34333,-0.137334 0.34333,-0.343336 0,-0.206001 -0.34333,-1.030007 -0.34333,-2.746686 V 12.217739 c 0,-0.206001 -0.13734,-0.309002 -0.34334,-0.343335 0,0 -3.22736,-0.343336 -3.43336,-0.343336 -0.17166,0 -0.34333,0.137334 -0.34333,0.343336 v 9.613401 c -0.82401,-0.721005 -2.36902,-1.716679 -4.46337,-1.716679 -6.90105,0 -7.89672,4.017029 -7.89672,8.92673 0,4.909701 0.99567,8.92673 7.89672,8.92673 2.57502,0 4.56637,-1.81968 4.56637,-1.81968 0,0 0.206,0.892673 0.24033,1.133008 z m -0.34333,-8.240058 c -0.0687,3.330357 -0.96134,5.493372 -4.46337,5.493372 -3.15869,0 -3.77669,-2.40335 -3.77669,-5.493372 0,-3.090022 0.618,-5.493372 3.77669,-5.493372 3.50203,0 4.46337,2.40335 4.46337,5.493372 z"
           style="font-style:normal;font-variant:normal;font-weight:normal;font-stretch:normal;font-size:34.3335762px;line-height:0px;font-family:Mentone;-inkscape-font-specification:Mentone;fill:#2a4824;fill-opacity:1"
           id="path949" /><path
           d="m 473.96771,20.457798 c 0,-0.206002 -0.13734,-0.343336 -0.34334,-0.343336 l -3.43335,0.343336 c -0.17167,0 -0.34334,0.137334 -0.34334,0.343335 v 9.270066 c 0,2.746686 -1.61368,4.120029 -4.46337,4.120029 -1.71667,0 -2.74668,-0.686671 -2.74668,-4.120029 v -9.613401 c 0,-0.206002 -0.13734,-0.343336 -0.34334,-0.343336 l -3.43336,0.343336 c -0.206,0.03433 -0.34333,0.137334 -0.34333,0.343335 v 9.270066 c 0,5.150036 1.37334,7.553387 6.86671,7.553387 3.09003,0 4.6007,-1.957014 4.6007,-1.957014 l 0.20601,1.270342 c 0.0343,0.206002 0.206,0.343336 0.34333,0.343336 h 3.43336 c 0.206,0 0.34333,-0.137334 0.34333,-0.343336 0,-0.137334 -0.34333,-1.030007 -0.34333,-2.40335 z"
           style="font-style:normal;font-variant:normal;font-weight:normal;font-stretch:normal;font-size:34.3335762px;line-height:0px;font-family:Mentone;-inkscape-font-specification:Mentone;fill:#2a4824;fill-opacity:1"
           id="path951" /><path
           d="m 486.5971,27.667849 c 0,0 8.24006,-6.866716 8.24006,-7.210051 0,-0.171668 -0.103,-0.343336 -0.34334,-0.343336 h -4.46336 c -0.17167,0 -0.44634,0.137334 -0.68667,0.343336 l -6.18005,5.836708 V 11.874404 c 0,-0.206002 -0.13733,-0.343336 -0.34333,-0.343336 l -3.43336,0.343336 c -0.206,0 -0.34334,0.137334 -0.34334,0.343335 v 22.316825 c 0,1.373343 -0.34333,2.266016 -0.34333,2.40335 0,0.206002 0.13733,0.343336 0.34333,0.343336 h 3.43336 c 0.13734,0 0.27467,-0.137334 0.34334,-0.343336 0,0 0.34333,-1.030007 0.34333,-2.40335 v -5.150037 l 6.52338,7.553387 c 0.13734,0.171668 0.34334,0.343336 0.68667,0.343336 h 4.12003 c 0.206,0 0.34334,-0.137334 0.34334,-0.343336 0,-0.343336 -8.24006,-9.270065 -8.24006,-9.270065 z"
           style="font-style:normal;font-variant:normal;font-weight:normal;font-stretch:normal;font-size:34.3335762px;line-height:0px;font-family:Mentone;-inkscape-font-specification:Mentone;fill:#2a4824;fill-opacity:1"
           id="path953" /><path
           d="m 502.59547,34.191228 c -0.78967,0 -2.06001,-0.206001 -2.06001,-2.060014 0,-1.236009 1.40768,-2.060015 3.09002,-2.060015 h 3.77669 v 0.686672 c 0,3.158689 -2.50635,3.433357 -4.8067,3.433357 z m 5.15004,2.746686 c 0.0687,0.240335 0.206,0.343336 0.34334,0.343336 h 3.43335 c 0.20601,0 0.34334,-0.137334 0.34334,-0.343336 0,-0.171668 -0.34334,-1.030007 -0.34334,-2.746686 v -8.92673 c 0,-3.433357 -3.05568,-5.493372 -7.55338,-5.493372 -2.78102,0 -5.69938,1.304676 -5.83671,1.373343 -0.17167,0.06867 -0.309,0.206002 -0.34334,0.343336 0,0 -0.34333,2.678019 -0.34333,2.746686 0,0.206002 0.13733,0.343336 0.34333,0.343336 0.34334,0 3.7767,-1.373343 6.18005,-1.373343 2.26601,0 3.43335,0.927006 3.43335,2.266016 v 1.510677 c 0,0 -2.78101,-0.343336 -3.77669,-0.343336 -4.4977,0 -7.21005,1.957014 -7.21005,5.493373 0,4.463364 4.0857,5.493372 6.18004,5.493372 2.81536,0 4.2917,-0.96134 4.97837,-1.716679 z"
           style="font-style:normal;font-variant:normal;font-weight:normal;font-stretch:normal;font-size:34.3335762px;line-height:0px;font-family:Mentone;-inkscape-font-specification:Mentone;fill:#2a4824;fill-opacity:1"
           id="path955" /><path
           d="m 529.20131,33.504557 c -0.17167,0 -2.23168,0.686671 -4.8067,0.686671 -3.94836,0 -4.8067,-2.369017 -4.8067,-5.493372 0,-3.124355 0.515,-5.493372 4.8067,-5.493372 2.40335,0 4.97837,1.030007 5.15004,1.030007 0.206,0 0.34333,-0.137334 0.34333,-0.343336 0,-0.137334 -0.34333,-2.746686 -0.34333,-2.746686 -0.0343,-0.137334 -0.17167,-0.274668 -0.34334,-0.343336 0,0 -2.23168,-1.030007 -4.8067,-1.030007 -7.55339,0 -8.92673,4.017029 -8.92673,8.92673 0,4.909701 1.37334,8.92673 8.92673,8.92673 2.30035,0 4.87537,-0.583671 5.15004,-0.686672 0.206,-0.03433 0.34333,-0.171668 0.34333,-0.343336 0,-0.137334 -0.34333,-2.746686 -0.34333,-2.746686 -0.0343,-0.206001 -0.17167,-0.343335 -0.34334,-0.343335 z"
           style="font-style:normal;font-variant:normal;font-weight:normal;font-stretch:normal;font-size:34.3335762px;line-height:0px;font-family:Mentone;-inkscape-font-specification:Mentone;fill:#2a4824;fill-opacity:1"
           id="path957" /><path
           d="m 533.65341,15.307761 c 0,1.33901 1.06434,2.403351 2.40335,2.403351 1.33901,0 2.40335,-1.064341 2.40335,-2.403351 0,-1.339009 -1.06434,-2.40335 -2.40335,-2.40335 -1.33901,0 -2.40335,1.064341 -2.40335,2.40335 z m -3.09002,25.750182 c -0.13734,0 -0.309,0.137335 -0.34334,0.274669 0,0 -0.34333,2.575018 -0.34333,2.746686 0,0.171668 0.13733,0.343336 0.34333,0.412003 0,0 0.96134,0.343336 2.26602,0.343336 4.22303,0 5.6307,-3.74236 5.6307,-7.553387 V 20.457798 c 0,-0.206002 -0.13733,-0.343336 -0.34333,-0.343336 l -3.43336,0.343336 c -0.206,0 -0.34333,0.137334 -0.34333,0.343335 V 37.28125 c 0,2.266016 -0.34334,4.120029 -1.71668,4.120029 -0.68667,0 -1.54501,-0.343336 -1.71668,-0.343336 z"
           style="font-style:normal;font-variant:normal;font-weight:normal;font-stretch:normal;font-size:34.3335762px;line-height:0px;font-family:Mentone;-inkscape-font-specification:Mentone;fill:#2a4824;fill-opacity:1"
           id="path959" /><path
           d="m 548.06064,34.191228 c -0.78967,0 -2.06002,-0.206001 -2.06002,-2.060014 0,-1.236009 1.40768,-2.060015 3.09003,-2.060015 h 3.77669 v 0.686672 c 0,3.158689 -2.50635,3.433357 -4.8067,3.433357 z m 5.15003,2.746686 c 0.0687,0.240335 0.20601,0.343336 0.34334,0.343336 h 3.43336 c 0.206,0 0.34333,-0.137334 0.34333,-0.343336 0,-0.171668 -0.34333,-1.030007 -0.34333,-2.746686 v -8.92673 c 0,-3.433357 -3.05569,-5.493372 -7.55339,-5.493372 -2.78102,0 -5.69937,1.304676 -5.83671,1.373343 -0.17166,0.06867 -0.309,0.206002 -0.34333,0.343336 0,0 -0.34334,2.678019 -0.34334,2.746686 0,0.206002 0.13734,0.343336 0.34334,0.343336 0.34333,0 3.77669,-1.373343 6.18004,-1.373343 2.26602,0 3.43336,0.927006 3.43336,2.266016 v 1.510677 c 0,0 -2.78102,-0.343336 -3.77669,-0.343336 -4.4977,0 -7.21006,1.957014 -7.21006,5.493373 0,4.463364 4.0857,5.493372 6.18005,5.493372 2.81535,0 4.2917,-0.96134 4.97837,-1.716679 z"
           style="font-style:normal;font-variant:normal;font-weight:normal;font-stretch:normal;font-size:34.3335762px;line-height:0px;font-family:Mentone;-inkscape-font-specification:Mentone;fill:#2a4824;fill-opacity:1"
           id="path961" /></g><g
         aria-label="wsparcie"
         transform="matrix(16.441081,0,0,16.441081,1872.1547,2451.3942)"
         style="font-style:normal;font-weight:normal;font-size:40px;line-height:1.25;font-family:sans-serif;letter-spacing:0px;word-spacing:0px;fill:#000000;fill-opacity:1;stroke:none"
         id="flowRoot896"><path
           d="m 178.83642,84.973779 3.09002,10.300073 c 0.0687,0.206001 0.17167,0.343335 0.34334,0.343335 h 4.12003 c 0.17166,0 0.27466,-0.137334 0.34333,-0.343335 0,0 5.83671,-16.342783 5.83671,-16.480117 0,-0.206001 -0.13733,-0.343336 -0.34334,-0.343336 h -3.60502 c -0.13734,0 -0.27467,0.137335 -0.34334,0.343336 l -3.57069,10.986745 -0.37767,2.40335 -0.37767,-2.40335 -3.39902,-10.986745 c -0.0687,-0.171668 -0.17167,-0.343336 -0.34334,-0.343336 h -1.33901 l -2.57502,0.343336 c -0.13733,0.03433 -0.27466,0.171668 -0.34333,0.343336 l -3.26169,10.643409 -0.37767,2.40335 -0.37767,-2.40335 -3.57069,-10.986745 c -0.0687,-0.206001 -0.206,-0.343336 -0.34334,-0.343336 -0.17166,0 -3.43335,0.343336 -3.43335,0.343336 -0.20601,0.03433 -0.34334,0.103001 -0.34334,0.343336 0,0.137334 5.66504,16.136781 5.66504,16.136781 0.0687,0.206001 0.17167,0.343335 0.34334,0.343335 h 4.12002 c 0.17167,0 0.27467,-0.137334 0.34334,-0.343335 l 3.09002,-10.300073 0.51501,-2.746686 z"
           style="font-style:normal;font-variant:normal;font-weight:normal;font-stretch:normal;font-size:34.3335762px;font-family:Mentone;-inkscape-font-specification:Mentone;fill:#2a4824;fill-opacity:1"
           id="path930" /><path
           d="m 195.05796,91.497158 c -0.206,0 -0.34333,0.137335 -0.34333,0.343336 0,0.137334 0.34333,2.746686 0.34333,2.746686 0.0343,0.137335 0.17167,0.274669 0.34334,0.343336 0,0 2.74668,1.030007 6.52338,1.030007 3.94836,0 6.18004,-2.060014 6.18004,-4.8067 0,-4.017029 -3.39902,-5.253038 -6.52338,-6.180044 -1.71668,-0.515004 -2.74669,-0.96134 -2.74669,-2.060015 0,-0.892673 0.68668,-1.373343 2.06002,-1.373343 2.91835,0 5.66504,0.686672 5.83671,0.686672 0.206,0 0.34333,-0.137335 0.34333,-0.343336 0,-0.137334 -0.34333,-2.746686 -0.34333,-2.746686 -0.0343,-0.137334 -0.17167,-0.274669 -0.34334,-0.343336 0,0 -2.40335,-0.686671 -5.49337,-0.686671 -4.2917,0 -6.18004,1.888346 -6.18004,4.8067 0,3.982695 3.39902,5.253037 6.52338,6.180044 1.71667,0.515004 2.74668,0.96134 2.74668,2.060015 0,0.892673 -0.54934,1.373343 -2.06001,1.373343 -3.09003,0 -6.69505,-1.030008 -6.86672,-1.030008 z"
           style="font-style:normal;font-variant:normal;font-weight:normal;font-stretch:normal;font-size:34.3335762px;font-family:Mentone;-inkscape-font-specification:Mentone;fill:#2a4824;fill-opacity:1"
           id="path932" /><path
           d="m 215.67903,78.793735 c -0.0687,-0.206001 -0.206,-0.343336 -0.34334,-0.343336 h -3.43336 c -0.206,0 -0.34333,0.137335 -0.34333,0.343336 0,0.206002 0.34333,1.030007 0.34333,2.746686 v 21.286819 c 0,0.206 0.13734,0.309 0.34334,0.34333 0,0 3.22736,0.34334 3.43336,0.34334 0.17166,0 0.34333,-0.13733 0.34333,-0.34334 v -8.926726 c 0.82401,0.721006 2.36902,1.716679 4.46337,1.716679 6.90105,0 7.89672,-4.017028 7.89672,-8.92673 0,-4.909701 -0.99567,-8.926729 -7.89672,-8.926729 -2.57502,0 -4.56637,1.819679 -4.56637,1.819679 0,0 -0.206,-0.892673 -0.24033,-1.133008 z m 0.34333,8.240058 c 0.0687,-3.330356 0.96134,-5.493372 4.46337,-5.493372 3.15869,0 3.77669,2.403351 3.77669,5.493372 0,3.090022 -0.618,5.493373 -3.77669,5.493373 -3.50203,0 -4.46337,-2.403351 -4.46337,-5.493373 z"
           style="font-style:normal;font-variant:normal;font-weight:normal;font-stretch:normal;font-size:34.3335762px;font-family:Mentone;-inkscape-font-specification:Mentone;fill:#2a4824;fill-opacity:1"
           id="path934" /><path
           d="m 237.46583,92.527166 c -0.78967,0 -2.06002,-0.206002 -2.06002,-2.060015 0,-1.236009 1.40768,-2.060015 3.09003,-2.060015 h 3.77669 v 0.686672 c 0,3.158689 -2.50635,3.433358 -4.8067,3.433358 z m 5.15003,2.746686 c 0.0687,0.240335 0.20601,0.343335 0.34334,0.343335 h 3.43336 c 0.206,0 0.34333,-0.137334 0.34333,-0.343335 0,-0.171668 -0.34333,-1.030008 -0.34333,-2.746686 v -8.92673 c 0,-3.433358 -3.05569,-5.493372 -7.55339,-5.493372 -2.78102,0 -5.69937,1.304676 -5.83671,1.373343 -0.17166,0.06867 -0.309,0.206001 -0.34333,0.343335 0,0 -0.34334,2.678019 -0.34334,2.746687 0,0.206001 0.13734,0.343335 0.34334,0.343335 0.34333,0 3.77669,-1.373343 6.18004,-1.373343 2.26602,0 3.43336,0.927007 3.43336,2.266016 v 1.510678 c 0,0 -2.78102,-0.343336 -3.77669,-0.343336 -4.4977,0 -7.21006,1.957014 -7.21006,5.493372 0,4.463365 4.0857,5.493372 6.18005,5.493372 2.81535,0 4.29169,-0.96134 4.97837,-1.716679 z"
           style="font-style:normal;font-variant:normal;font-weight:normal;font-stretch:normal;font-size:34.3335762px;font-family:Mentone;-inkscape-font-specification:Mentone;fill:#2a4824;fill-opacity:1"
           id="path936" /><path
           d="m 262.25198,78.450399 c 0,0 -1.37334,-0.343335 -2.40335,-0.343335 -2.40335,0 -3.77669,1.06434 -4.53203,1.888346 l -0.27467,-1.201675 c -0.0343,-0.206001 -0.206,-0.343336 -0.34333,-0.343336 h -3.43336 c -0.206,0 -0.34334,0.137335 -0.34334,0.343336 0,0.137334 0.34334,1.030007 0.34334,2.40335 v 14.076767 c 0,0.206001 0.13733,0.343335 0.34334,0.343335 h 3.43335 c 0.20601,0 0.34334,-0.137334 0.34334,-0.343335 V 85.66045 c 0,-2.712352 1.61368,-4.120029 4.46336,-4.120029 0.58368,0 2.57502,0.343336 2.74669,0.343336 0.206,0 0.34334,-0.137334 0.34334,-0.343336 0,-0.137334 -0.34334,-2.746686 -0.34334,-2.746686 -0.0343,-0.171668 -0.206,-0.309002 -0.34334,-0.343336 z"
           style="font-style:normal;font-variant:normal;font-weight:normal;font-stretch:normal;font-size:34.3335762px;font-family:Mentone;-inkscape-font-specification:Mentone;fill:#2a4824;fill-opacity:1"
           id="path938" /><path
           d="m 278.69026,91.840494 c -0.17166,0 -2.23168,0.686672 -4.8067,0.686672 -3.94836,0 -4.8067,-2.369017 -4.8067,-5.493373 0,-3.124355 0.51501,-5.493372 4.8067,-5.493372 2.40335,0 4.97837,1.030008 5.15004,1.030008 0.206,0 0.34333,-0.137335 0.34333,-0.343336 0,-0.137335 -0.34333,-2.746686 -0.34333,-2.746686 -0.0343,-0.137335 -0.17167,-0.274669 -0.34334,-0.343336 0,0 -2.23168,-1.030007 -4.8067,-1.030007 -7.55338,0 -8.92673,4.017028 -8.92673,8.926729 0,4.909702 1.37335,8.92673 8.92673,8.92673 2.30035,0 4.87537,-0.583671 5.15004,-0.686671 0.206,-0.03433 0.34333,-0.171668 0.34333,-0.343336 0,-0.137334 -0.34333,-2.746686 -0.34333,-2.746686 -0.0343,-0.206002 -0.17167,-0.343336 -0.34334,-0.343336 z"
           style="font-style:normal;font-variant:normal;font-weight:normal;font-stretch:normal;font-size:34.3335762px;font-family:Mentone;-inkscape-font-specification:Mentone;fill:#2a4824;fill-opacity:1"
           id="path940" /><path
           d="m 283.45136,92.870501 c 0,1.373343 0.34333,2.403351 0.34333,2.403351 0.0687,0.206001 0.206,0.343335 0.34334,0.343335 h 3.43336 c 0.206,0 0.34333,-0.137334 0.34333,-0.343335 0,-0.137335 -0.34333,-1.030008 -0.34333,-2.403351 V 78.793735 c 0,-0.206001 -0.13734,-0.343336 -0.34334,-0.343336 l -3.43336,0.343336 c -0.206,0 -0.34333,0.137334 -0.34333,0.343336 z m -0.34334,-19.226802 c 0,1.339009 1.06434,2.40335 2.40335,2.40335 1.33901,0 2.40335,-1.064341 2.40335,-2.40335 0,-1.33901 -1.06434,-2.403351 -2.40335,-2.403351 -1.33901,0 -2.40335,1.064341 -2.40335,2.403351 z"
           style="font-style:normal;font-variant:normal;font-weight:normal;font-stretch:normal;font-size:34.3335762px;font-family:Mentone;-inkscape-font-specification:Mentone;fill:#2a4824;fill-opacity:1"
           id="path942" /><path
           d="m 300.2276,81.540421 c 2.40335,0 3.26169,1.854013 3.39903,3.776694 h -7.69072 c 0.24033,-2.163016 1.03,-3.776694 4.29169,-3.776694 z m 7.21005,7.210051 c 0.206,0 0.37767,-0.171668 0.37767,-0.343336 v -1.373343 c 0,-6.180043 -2.71235,-8.892396 -7.58772,-8.892396 -7.00405,0 -8.58339,3.982695 -8.58339,8.892396 0,4.909702 1.54501,8.92673 8.92673,8.92673 3.09002,0 5.49337,-0.686671 5.49337,-0.686671 0.206,-0.03433 0.309,-0.171668 0.34334,-0.343336 0,0 0.34333,-2.643685 0.34333,-2.746686 0,-0.206002 -0.13733,-0.343336 -0.34333,-0.343336 -0.17167,0 -3.09003,0.686672 -5.83671,0.686672 -3.43336,0 -4.36037,-1.579345 -4.63503,-3.776694 z"
           style="font-style:normal;font-variant:normal;font-weight:normal;font-stretch:normal;font-size:34.3335762px;font-family:Mentone;-inkscape-font-specification:Mentone;fill:#2a4824;fill-opacity:1"
           id="path944" /></g><g
         aria-label="rozwój"
         transform="matrix(16.441081,0,0,16.441081,1690.9221,1951.8279)"
         style="font-style:normal;font-weight:normal;font-size:40px;line-height:1.25;font-family:sans-serif;letter-spacing:0px;word-spacing:0px;fill:#000000;fill-opacity:1;stroke:none"
         id="flowRoot904"><path
           d="m 187.47665,147.39376 c 0,0 -1.37335,-0.34334 -2.40335,-0.34334 -2.40335,0 -3.7767,1.06434 -4.53203,1.88835 l -0.27467,-1.20168 c -0.0343,-0.206 -0.206,-0.34333 -0.34334,-0.34333 h -3.43336 c -0.206,0 -0.34333,0.13733 -0.34333,0.34333 0,0.13734 0.34333,1.03001 0.34333,2.40335 v 14.07677 c 0,0.206 0.13734,0.34334 0.34334,0.34334 h 3.43336 c 0.206,0 0.34333,-0.13734 0.34333,-0.34334 v -9.6134 c 0,-2.71235 1.61368,-4.12003 4.46337,-4.12003 0.58367,0 2.57502,0.34334 2.74668,0.34334 0.206,0 0.34334,-0.13734 0.34334,-0.34334 0,-0.13733 -0.34334,-2.74669 -0.34334,-2.74669 -0.0343,-0.17166 -0.206,-0.309 -0.34333,-0.34333 z"
           style="font-style:normal;font-variant:normal;font-weight:normal;font-stretch:normal;font-size:34.3335762px;font-family:Mentone;-inkscape-font-specification:Mentone;fill:#2a4824;fill-opacity:1"
           id="path917" /><path
           d="m 194.16418,155.97715 c 0,-3.43335 1.03001,-5.49337 4.46337,-5.49337 3.43336,0 4.46336,2.06002 4.46336,5.49337 0,3.43336 -1.03,5.49338 -4.46336,5.49338 -3.43336,0 -4.46337,-2.06002 -4.46337,-5.49338 z m -4.12002,0 c 0,6.18005 3.43335,8.92673 8.58339,8.92673 5.15004,0 8.58339,-2.74668 8.58339,-8.92673 0,-6.18004 -3.43335,-8.92673 -8.58339,-8.92673 -5.15004,0 -8.58339,2.74669 -8.58339,8.92673 z"
           style="font-style:normal;font-variant:normal;font-weight:normal;font-stretch:normal;font-size:34.3335762px;font-family:Mentone;-inkscape-font-specification:Mentone;fill:#2a4824;fill-opacity:1"
           id="path919" /><path
           d="m 224.06658,150.82712 c 0.0343,-0.0343 0.17167,-0.20601 0.17167,-0.34334 v -2.74669 c 0,-0.206 -0.13733,-0.34333 -0.34333,-0.34333 h -10.02541 l -3.02135,0.34333 c -0.206,0.0343 -0.34334,0.13734 -0.34334,0.34334 v 2.40335 c 0,0.206 0.13734,0.34334 0.34334,0.34334 h 9.02973 l -1.37334,0.68667 -8.1714,9.6134 c -0.103,0.13733 -0.17166,0.206 -0.17166,0.34334 v 2.74668 c 0,0.206 0.13733,0.34334 0.34333,0.34334 h 13.3901 c 0.206,0 0.309,-0.13734 0.34333,-0.34334 l 0.34334,-2.74668 c 0,-0.20601 -0.13734,-0.34334 -0.34334,-0.34334 h -9.7164 l 1.37334,-0.68667 z"
           style="font-style:normal;font-variant:normal;font-weight:normal;font-stretch:normal;font-size:34.3335762px;font-family:Mentone;-inkscape-font-specification:Mentone;fill:#2a4824;fill-opacity:1"
           id="path921" /><path
           d="m 241.19421,153.91714 3.09002,10.30007 c 0.0687,0.206 0.17167,0.34334 0.34334,0.34334 h 4.12003 c 0.17167,0 0.27467,-0.13734 0.34333,-0.34334 0,0 5.83671,-16.34278 5.83671,-16.48012 0,-0.206 -0.13733,-0.34333 -0.34333,-0.34333 h -3.60503 c -0.13733,0 -0.27467,0.13733 -0.34334,0.34333 l -3.57069,10.98675 -0.37767,2.40335 -0.37767,-2.40335 -3.39902,-10.98675 c -0.0687,-0.17166 -0.17167,-0.34333 -0.34334,-0.34333 h -1.339 l -2.57502,0.34333 c -0.13734,0.0343 -0.27467,0.17167 -0.34334,0.34334 l -3.26169,10.64341 -0.37767,2.40335 -0.37767,-2.40335 -3.57069,-10.98675 c -0.0687,-0.206 -0.206,-0.34333 -0.34333,-0.34333 -0.17167,0 -3.43336,0.34333 -3.43336,0.34333 -0.206,0.0343 -0.34334,0.10301 -0.34334,0.34334 0,0.13733 5.66504,16.13678 5.66504,16.13678 0.0687,0.206 0.17167,0.34334 0.34334,0.34334 h 4.12003 c 0.17166,0 0.27467,-0.13734 0.34333,-0.34334 l 3.09002,-10.30007 0.51501,-2.74669 z"
           style="font-style:normal;font-variant:normal;font-weight:normal;font-stretch:normal;font-size:34.3335762px;font-family:Mentone;-inkscape-font-specification:Mentone;fill:#2a4824;fill-opacity:1"
           id="path923" /><path
           d="m 261.02078,155.97715 c 0,-3.43335 1.03001,-5.49337 4.46337,-5.49337 3.43335,0 4.46336,2.06002 4.46336,5.49337 0,3.43336 -1.03001,5.49338 -4.46336,5.49338 -3.43336,0 -4.46337,-2.06002 -4.46337,-5.49338 z m -4.12003,0 c 0,6.18005 3.43336,8.92673 8.5834,8.92673 5.15003,0 8.58339,-2.74668 8.58339,-8.92673 0,-6.18004 -3.43336,-8.92673 -8.58339,-8.92673 -5.15004,0 -8.5834,2.74669 -8.5834,8.92673 z m 14.07677,-15.79344 c 0,-0.206 -0.103,-0.34334 -0.34334,-0.34334 h -3.09002 c -0.34334,0 -0.54934,0.13734 -0.68667,0.34334 0,0 -3.43336,4.63503 -3.43336,4.8067 0,0.206 0.13734,0.34333 0.34334,0.34333 h 2.40335 c 0.27467,0 0.515,-0.13733 0.68667,-0.34333 0,0 4.12003,-4.63503 4.12003,-4.8067 z"
           style="font-style:normal;font-variant:normal;font-weight:normal;font-stretch:normal;font-size:34.3335762px;font-family:Mentone;-inkscape-font-specification:Mentone;fill:#2a4824;fill-opacity:1"
           id="path925" /><path
           d="m 277.70475,142.58706 c 0,1.33901 1.06434,2.40335 2.40335,2.40335 1.33901,0 2.40335,-1.06434 2.40335,-2.40335 0,-1.33901 -1.06434,-2.40335 -2.40335,-2.40335 -1.33901,0 -2.40335,1.06434 -2.40335,2.40335 z m -3.09002,25.75018 c -0.13734,0 -0.30901,0.13733 -0.34334,0.27467 0,0 -0.34334,2.57502 -0.34334,2.74668 0,0.17167 0.13734,0.34334 0.34334,0.41201 0,0 0.96134,0.34333 2.26602,0.34333 4.22303,0 5.6307,-3.74236 5.6307,-7.55338 v -16.82346 c 0,-0.206 -0.13733,-0.34333 -0.34333,-0.34333 l -3.43336,0.34333 c -0.206,0 -0.34334,0.13734 -0.34334,0.34334 v 16.48012 c 0,2.26601 -0.34333,4.12003 -1.71667,4.12003 -0.68668,0 -1.54502,-0.34334 -1.71668,-0.34334 z"
           style="font-style:normal;font-variant:normal;font-weight:normal;font-stretch:normal;font-size:34.3335762px;font-family:Mentone;-inkscape-font-specification:Mentone;fill:#2a4824;fill-opacity:1"
           id="path927" /></g></g><path
       d="m 3.5345533,305.20157 h 8.3733037 c 0.173241,0 0.288735,-0.11549 0.288735,-0.28873 v -2.30988 c 0,-0.17324 -0.115494,-0.28874 -0.288735,-0.28874 H 3.5345533 v -5.48595 h 9.2395077 c 0.173241,0 0.288734,-0.1155 0.288734,-0.28874 0,-0.11549 -0.288734,-2.30987 -0.288734,-2.30987 -0.02887,-0.17324 -0.115494,-0.28874 -0.288735,-0.28874 H 2.9570841 l -2.59861148,0.28874 c -0.17324077,0.0289 -0.28873461,0.11549 -0.28873461,0.28873 v 19.34522 c 0,0.17324 0.11549384,0.28873 0.28873461,0.28873 H 3.2458187 c 0.1732408,0 0.2887346,-0.11549 0.2887346,-0.28873 z"
       style="font-style:normal;font-variant:normal;font-weight:600;font-stretch:normal;font-size:28.87346077px;font-family:Mentone;-inkscape-font-specification:'Mentone Semi-Bold';fill:#5c9232;fill-opacity:1"
       id="path964" /><path
       d="m 28.488893,306.35651 c 0,3.17608 -0.57747,5.19722 -4.33102,5.19722 -3.753549,0 -4.331019,-2.02114 -4.331019,-5.19722 v -12.12685 c 0,-0.17324 -0.115494,-0.28874 -0.288734,-0.28874 l -2.887346,0.28874 c -0.173241,0 -0.288735,0.11549 -0.288735,0.28873 v 12.12685 c 0,5.7747 2.887346,7.79584 7.795834,7.79584 4.908489,0 7.795835,-2.02114 7.795835,-7.79584 v -12.41558 c 0,-0.17324 -0.115494,-0.28874 -0.288735,-0.28874 l -2.887346,0.28874 c -0.173241,0 -0.288734,0.11549 -0.288734,0.28873 z"
       style="font-style:normal;font-variant:normal;font-weight:600;font-stretch:normal;font-size:28.87346077px;font-family:Mentone;-inkscape-font-specification:'Mentone Semi-Bold';fill:#5c9232;fill-opacity:1"
       id="path966" /><path
       d="m 40.936966,299.42688 6.929631,14.43673 c 0.08662,0.17324 0.144367,0.28873 0.288734,0.28873 h 4.619754 c 0.173241,0 0.288735,-0.11549 0.288735,-0.28873 v -19.63395 c 0,-0.17324 -0.115494,-0.28874 -0.288735,-0.28874 l -2.887346,0.28874 c -0.173241,0.0289 -0.288735,0.11549 -0.288735,0.28873 v 16.16914 l -0.577469,-2.02114 -6.929631,-14.43673 c -0.08662,-0.17324 -0.17324,-0.28874 -0.288734,-0.28874 h -2.309877 l -2.309877,0.28874 c -0.173241,0.0289 -0.288734,0.11549 -0.288734,0.28873 v 19.34522 c 0,0.17324 0.115493,0.28873 0.288734,0.28873 h 2.887346 c 0.173241,0 0.288735,-0.11549 0.288735,-0.28873 v -16.45787 z"
       style="font-style:normal;font-variant:normal;font-weight:600;font-stretch:normal;font-size:28.87346077px;font-family:Mentone;-inkscape-font-specification:'Mentone Semi-Bold';fill:#5c9232;fill-opacity:1"
       id="path968" /><path
       d="m 64.852312,296.82827 c 5.197223,0 5.919059,4.47538 5.919059,7.21836 0,2.74298 -0.721836,7.21837 -5.919059,7.21837 h -3.176081 v -14.43673 z m 0,17.32407 c 8.662038,0 9.528242,-5.94793 9.528242,-10.10571 0,-4.15778 -0.866204,-10.10571 -9.528242,-10.10571 h -3.75355 l -2.598612,0.28874 c -0.17324,0.0289 -0.288734,0.11549 -0.288734,0.28873 v 19.34522 c 0,0.17324 0.115494,0.28873 0.288734,0.28873 z"
       style="font-style:normal;font-variant:normal;font-weight:600;font-stretch:normal;font-size:28.87346077px;font-family:Mentone;-inkscape-font-specification:'Mentone Semi-Bold';fill:#5c9232;fill-opacity:1"
       id="path970" /><path
       d="m 86.193407,293.94092 -2.454244,0.28874 c -0.115494,0.0289 -0.230987,0.14436 -0.288734,0.28873 0,0 -7.391606,19.22973 -7.391606,19.34522 0,0.17324 0.115494,0.28873 0.288734,0.28873 h 3.031714 c 0.115494,0 0.230987,-0.11549 0.288734,-0.28873 l 2.021143,-5.48596 h 7.738087 l 2.078889,5.48596 c 0.05775,0.17324 0.173241,0.28873 0.288735,0.28873 h 3.031713 c 0.173241,0 0.288735,-0.11549 0.288735,-0.28873 0,-0.11549 -7.5071,-19.63395 -7.5071,-19.63395 -0.05775,-0.14437 -0.144367,-0.28874 -0.288735,-0.28874 z m -0.895077,4.90849 0.288735,-2.02114 0.288734,2.02114 2.483118,6.6409 h -5.572578 z"
       style="font-style:normal;font-variant:normal;font-weight:600;font-stretch:normal;font-size:28.87346077px;font-family:Mentone;-inkscape-font-specification:'Mentone Semi-Bold';fill:#5c9232;fill-opacity:1"
       id="path972" /><path
       d="m 111.5998,297.40574 c 0.17324,0 0.28873,-0.1155 0.28873,-0.28874 0,-0.11549 -0.28873,-2.30987 -0.28873,-2.30987 -0.0289,-0.1155 -0.14437,-0.23099 -0.28874,-0.28874 0,0 -2.36762,-0.8662 -4.90848,-0.8662 -8.690916,0 -9.528247,6.23666 -9.528247,10.39444 0,4.15778 0.837331,10.39445 9.528247,10.39445 2.77185,0 5.02398,-0.5486 5.19722,-0.57747 0.17324,-0.0289 0.28873,-0.14437 0.28873,-0.28874 0,-0.11549 -0.28873,-2.30987 -0.28873,-2.30987 -0.0289,-0.17324 -0.14437,-0.28874 -0.28874,-0.28874 -0.14436,0 -2.88734,0.57747 -4.90848,0.57747 -5.19723,0 -5.91906,-4.47538 -5.91906,-7.5071 0,-3.03171 0.72183,-7.5071 5.91906,-7.5071 2.02114,0 5.05285,0.86621 5.19722,0.86621 z"
       style="font-style:normal;font-variant:normal;font-weight:600;font-stretch:normal;font-size:28.87346077px;font-family:Mentone;-inkscape-font-specification:'Mentone Semi-Bold';fill:#5c9232;fill-opacity:1"
       id="path974" /><path
       d="m 114.19841,311.265 c -0.11549,0 -0.25986,0.11549 -0.28873,0.23099 0,0 -0.28874,2.1655 -0.28874,2.30987 0,0.14437 0.1155,0.28874 0.28874,0.34648 0,0 1.15493,0.28874 2.30987,0.28874 3.46482,0 5.48596,-2.30988 5.48596,-5.48596 v -14.72546 c 0,-0.17324 -0.11549,-0.28874 -0.28873,-0.28874 l -2.88735,0.28874 c -0.17324,0 -0.28873,0.11549 -0.28873,0.28873 v 14.43673 c 0,1.73241 -0.9817,2.59861 -2.02115,2.59861 -0.72183,0 -1.87677,-0.28873 -2.02114,-0.28873 z"
       style="font-style:normal;font-variant:normal;font-weight:600;font-stretch:normal;font-size:28.87346077px;font-family:Mentone;-inkscape-font-specification:'Mentone Semi-Bold';fill:#5c9232;fill-opacity:1"
       id="path977" /><path
       d="m 134.35344,293.94092 -2.45424,0.28874 c -0.1155,0.0289 -0.23099,0.14436 -0.28874,0.28873 0,0 -7.3916,19.22973 -7.3916,19.34522 0,0.17324 0.11549,0.28873 0.28873,0.28873 h 3.03171 c 0.1155,0 0.23099,-0.11549 0.28874,-0.28873 l 2.02114,-5.48596 h 7.73809 l 2.07889,5.48596 c 0.0577,0.17324 0.17324,0.28873 0.28873,0.28873 h 3.03172 c 0.17324,0 0.28873,-0.11549 0.28873,-0.28873 0,-0.11549 -7.5071,-19.63395 -7.5071,-19.63395 -0.0577,-0.14437 -0.14437,-0.28874 -0.28873,-0.28874 z m -0.89508,4.90849 0.28874,-2.02114 0.28873,2.02114 2.48312,6.6409 h -5.57258 z"
       style="font-style:normal;font-variant:normal;font-weight:600;font-stretch:normal;font-size:28.87346077px;font-family:Mentone;-inkscape-font-specification:'Mentone Semi-Bold';fill:#5c9232;fill-opacity:1"
       id="path979" /></g></g></svg>