<?xml version="1.0" standalone="no"?><!DOCTYPE svg PUBLIC "-//W3C//DTD SVG 1.1//EN" "http://www.w3.org/Graphics/SVG/1.1/DTD/svg11.dtd"><svg class="icon" height="512" viewBox="0 0 1024 1024" version="1.1" xmlns="http://www.w3.org/2000/svg"><path d="M953.43 269.58C930.85 149.46 841.69 70.9 719.39 64.36c-6.84-0.36-13.64-1.56-20.47-2.36H325.08c-23.23 3.68-46.81 4.71-69.8 10.24C148.88 97.85 77.48 182.19 67.45 292c-2.84 31.07-1 62.3-5.45 93.19v260.59c4.22 35.46 2.66 71.29 8.73 106.75 19 111.15 98.24 188.71 210 203.75 15.91 2.14 31.88 3.82 47.82 5.71h366.91c22.1-3.67 44.55-4.14 66.61-8.78 108.3-22.8 182.54-104.94 194-215.94 2.54-24.65 4-49.41 6-74.12V357.37c-4.07-29.14-3.16-58.67-8.64-87.79zM874.3 700.81a268.35 268.35 0 0 1-8.72 56.45c-19 69.27-73.48 111.08-148.48 117-20.12 1.6-40.24 2.42-60.36 2.89l0.22-231.36v-9.55c0.09-11.91 0.49-12.39 12.1-12.43q49.3-0.17 98.61-0.25V510.49q-48.82-0.28-97.65-0.55c-13-0.07-13-0.08-13.05-13.07 0-20.83-0.15-41.65 0.06-62.48 0.21-20.55 12.5-33 32.84-33.23 25.93-0.28 51.86-0.22 77.79-0.31 0-36-0.09-71.92 0.11-107.89 0-4.35-1-5.37-5.32-5.34-30.62 0.22-61.25 0.12-91.87 0.12-28.17 4.72-53.46 15.35-74.88 35-27.13 24.84-39.21 57.16-46.93 91.86-6.09 27.37-5.39 55.16-5.29 82.93 0 12.39 0 12.37-12.68 12.44q-48.85 0.26-97.69 0.55V623.6l97.93 0.24c12.22 0 12.45 0.28 12.45 12.85v232.3c0 3 0.14 6 0.29 9-10.81 0.1-21.61 0.24-32.42 0.53-66.25-2-132.52 1.2-198.78-3.88-99.26-7.64-158.38-69.07-163.02-169.73-4.93-107-3.35-214.09-2.67-321.13 0.2-30.49 1.67-61.22 6-91.68 11.81-82.62 68.74-136.57 152.2-142 126.71-8.24 253.56-3.79 380.36-3 18.31 0.12 36.77 3 54.86 6.35 73.4 13.49 120.42 63.81 130.55 138 4.87 35.64 6 71.57 6.28 107.31 0.76 100.7 2.69 201.42-2.84 302.05z" /></svg>