<?xml version="1.0" ?><!DOCTYPE svg  PUBLIC '-//W3C//DTD SVG 1.1//EN'  'http://www.w3.org/Graphics/SVG/1.1/DTD/svg11.dtd'><svg enable-background="new 0 0 128 128" height="128px" id="Layer_1" version="1.1" viewBox="0 0 128 128" width="128px" xml:space="preserve" xmlns="http://www.w3.org/2000/svg" xmlns:xlink="http://www.w3.org/1999/xlink"><path d="M73.697,1h-2.9h-30.13c-6.669-0.004-12.771,2.723-17.134,7.097c-4.374,4.362-7.101,10.465-7.097,17.134  v77.54c-0.004,6.669,2.723,12.771,7.097,17.132c4.363,4.375,10.465,7.101,17.134,7.098h46.667c6.67,0.003,12.771-2.723,17.133-7.098  c4.375-4.361,7.101-10.463,7.098-17.132V38.865L73.697,1z M87.646,34.748c-2.688-0.101-5.063-1.199-6.852-2.978  c-1.776-1.789-2.877-4.164-2.977-6.851L87.646,34.748z M94.568,110.004c-1.874,1.862-4.387,2.992-7.234,2.996H40.667  c-2.847-0.004-5.361-1.134-7.234-2.996c-1.862-1.874-2.993-4.387-2.996-7.233v-77.54c0.003-2.847,1.134-5.361,2.996-7.235  c1.874-1.862,4.387-2.992,7.234-2.996h23.131v9.536c-0.004,6.669,2.724,12.771,7.097,17.134c4.363,4.374,10.466,7.102,17.135,7.098  h9.535v54.003C97.561,105.617,96.429,108.13,94.568,110.004z" fill="#232323"/></svg>