<?xml version="1.0" standalone="no"?><!DOCTYPE svg PUBLIC "-//W3C//DTD SVG 1.1//EN" "http://www.w3.org/Graphics/SVG/1.1/DTD/svg11.dtd"><svg class="icon" height="512" viewBox="0 0 1024 1024" version="1.1" xmlns="http://www.w3.org/2000/svg"><path d="M907.43 552.61a400.58 400.58 0 0 0 2.06-40.6c0-11.13-0.77-22.08-1.67-33-16.06-195.16-173-350-368.95-363.15-8.92-0.6-17.8-1.36-26.87-1.36-12.09 0-24 0.75-35.83 1.81-189.33 17-340.48 166.44-359.6 355.1a389.35 389.35 0 0 0 0.47 84.23c20.31 185.63 168.29 332.9 354.36 351.79a401.44 401.44 0 0 0 81.2 0c187.08-18.97 335.83-167.72 354.83-354.82zM443.51 838.76a420.29 420.29 0 0 1-86.38-110.12 453.52 453.52 0 0 1 135.14-28v144.25a333.87 333.87 0 0 1-48.76-6.13z m136.95-653.53a419.1 419.1 0 0 1 87 111.19 451.37 451.37 0 0 1-135.76 26.64v-144a334.06 334.06 0 0 1 48.76 6.17z m264.42 307.08h-90.76a488 488 0 0 0-40.58-177.65 472.58 472.58 0 0 0 47-24.81 332.05 332.05 0 0 1 84.34 202.46z m-313.18 0V357.13A489.48 489.48 0 0 0 682 327.48a454.49 454.49 0 0 1 38.06 164.82z m188.36 39.39a454.29 454.29 0 0 1-37.23 163 489.6 489.6 0 0 0-151.12-28.4V531.69z m15.54-266.93c-11.87 6.76-24 13.16-36.59 18.89a473.91 473.91 0 0 0-50.19-75.89 334.46 334.46 0 0 1 86.77 56.99z m-243.33-85.66v144a452.51 452.51 0 0 1-135.74-26.69 419 419 0 0 1 87-111.18 333.55 333.55 0 0 1 48.74-6.13z m-188.36 313.2A454.2 454.2 0 0 1 342 327.38a486.28 486.28 0 0 0 150.22 29.69v135.24z m188.36 39.39v135a485.55 485.55 0 0 0-149.72 31.11 454.72 454.72 0 0 1-38.64-166.08zM325 283.6c-12.59-5.7-24.71-12.11-36.57-18.87a334.41 334.41 0 0 1 86.69-56.94A474.63 474.63 0 0 0 325 283.6z m-14.55 30.95a488.55 488.55 0 0 0-40.62 177.76h-90.71a332.05 332.05 0 0 1 84.54-202.68 464.36 464.36 0 0 0 46.8 24.92zM179.12 531.69h90.73a492.23 492.23 0 0 0 40.93 179.41 478.7 478.7 0 0 0-45.72 24.82 332.06 332.06 0 0 1-85.94-204.23z m110.82 228.95c11.49-6.67 23.22-13 35.41-18.69a473.82 473.82 0 0 0 48.14 73.47 334.42 334.42 0 0 1-83.55-54.78z m241.76 84.25V700.3a453.64 453.64 0 0 1 136.88 25.48 418.68 418.68 0 0 1-88 113 333.67 333.67 0 0 1-48.88 6.11z m168.94-106.44c12.77 5.7 25.05 12.11 37.08 18.87a334.53 334.53 0 0 1-87.17 58.09 471.34 471.34 0 0 0 50.09-76.96z m14.18-31.1a492.61 492.61 0 0 0 39.3-175.66h90.76a332 332 0 0 1-82.45 200.39 476.85 476.85 0 0 0-47.61-24.73z" /></svg>